<?xml version="1.0" standalone="no"?>
<!DOCTYPE svg PUBLIC "-//W3C//DTD SVG 20010904//EN"
 "http://www.w3.org/TR/2001/REC-SVG-20010904/DTD/svg10.dtd">
<svg version="1.0" xmlns="http://www.w3.org/2000/svg"
 width="2000.000000pt" height="2000.000000pt" viewBox="0 0 2000.000000 2000.000000"
 preserveAspectRatio="xMidYMid meet">
<metadata>
Created by potrace 1.14, written by Peter Selinger 2001-2017
</metadata>
<g transform="translate(0.000000,2000.000000) scale(0.100000,-0.100000)"
fill="#000000" stroke="none">
<path d="M9609 19986 c-2 -2 -69 -7 -149 -11 -80 -3 -161 -8 -180 -10 -19 -2
-71 -6 -115 -10 -121 -9 -252 -22 -395 -40 -19 -3 -57 -7 -85 -10 -27 -4 -57
-8 -65 -10 -8 -2 -40 -7 -70 -10 -48 -5 -114 -15 -200 -31 -14 -2 -54 -9 -90
-14 -64 -11 -85 -15 -126 -24 -12 -2 -39 -7 -60 -10 -22 -4 -46 -8 -54 -11 -8
-2 -26 -6 -40 -9 -206 -39 -612 -142 -888 -226 -200 -61 -479 -154 -537 -179
-11 -4 -45 -17 -75 -28 -30 -12 -136 -53 -235 -93 -162 -65 -226 -93 -430
-185 -597 -270 -1256 -665 -1835 -1099 -52 -39 -97 -73 -100 -76 -3 -3 -25
-21 -50 -40 -47 -36 -261 -210 -270 -220 -3 -3 -32 -27 -65 -55 -208 -172
-637 -586 -846 -816 -99 -108 -221 -247 -294 -334 -27 -33 -53 -62 -56 -65 -9
-8 -231 -290 -279 -355 -25 -33 -47 -62 -50 -65 -46 -44 -570 -831 -570 -856
0 -2 -17 -32 -38 -66 -91 -149 -412 -758 -412 -781 0 -3 -20 -47 -44 -98 -247
-527 -464 -1154 -619 -1789 -64 -262 -104 -455 -147 -720 -12 -69 -23 -136
-25 -150 -2 -14 -7 -45 -10 -70 -3 -25 -7 -56 -10 -70 -2 -14 -7 -50 -10 -80
-3 -30 -8 -66 -10 -80 -2 -14 -7 -52 -10 -85 -3 -33 -7 -76 -10 -95 -3 -19 -7
-64 -9 -100 -5 -63 -13 -161 -21 -265 -22 -275 -23 -1105 -1 -1285 2 -14 7
-74 11 -135 4 -60 8 -117 10 -125 1 -8 6 -50 10 -92 3 -43 8 -90 10 -105 1
-16 6 -57 10 -93 4 -36 8 -76 10 -90 28 -195 34 -237 40 -270 3 -14 7 -38 9
-55 21 -132 33 -204 41 -245 3 -14 7 -34 9 -45 2 -11 12 -56 21 -100 9 -44 19
-91 21 -104 45 -234 163 -673 270 -1001 15 -47 29 -89 30 -95 3 -13 43 -124
54 -150 5 -11 19 -49 31 -85 40 -119 175 -456 238 -593 17 -37 31 -69 31 -71
0 -8 112 -242 194 -405 98 -196 205 -391 325 -591 47 -79 96 -161 108 -181 91
-155 406 -610 548 -793 64 -82 288 -361 294 -366 3 -3 28 -32 56 -65 27 -33
52 -62 55 -65 3 -3 41 -45 85 -95 202 -229 609 -636 805 -805 14 -12 52 -45
85 -75 33 -29 89 -77 125 -106 36 -30 67 -56 70 -59 5 -5 74 -61 124 -100 10
-8 33 -27 50 -41 54 -46 399 -301 502 -372 83 -57 305 -204 419 -276 192 -122
490 -289 770 -430 225 -114 276 -138 480 -228 55 -24 114 -50 130 -58 17 -7
66 -28 110 -45 44 -17 94 -37 110 -45 224 -96 928 -326 1165 -380 8 -2 101
-24 205 -48 162 -39 261 -60 373 -82 13 -2 31 -6 40 -9 9 -3 35 -8 57 -11 23
-3 52 -8 65 -10 14 -3 68 -12 120 -21 52 -8 106 -17 120 -19 14 -3 79 -12 145
-21 161 -21 173 -22 225 -28 96 -12 137 -16 190 -20 30 -3 84 -8 120 -11 275
-25 425 -30 845 -30 405 0 565 5 850 29 123 10 218 20 305 31 19 2 59 7 89 11
30 3 62 7 71 9 9 2 41 6 71 10 30 3 65 8 79 10 97 15 229 36 250 40 14 3 41 8
60 10 19 3 55 10 80 15 25 5 56 12 70 14 14 2 36 7 50 10 14 3 36 8 50 10 65
11 468 107 593 141 9 3 25 7 36 9 25 6 156 44 211 62 25 8 90 28 145 45 281
86 673 232 940 349 877 385 1598 821 2329 1409 77 62 143 116 146 120 3 3 32
28 65 56 61 50 191 165 300 265 205 188 606 603 770 798 17 20 57 68 91 106
194 226 477 604 671 896 349 526 589 970 877 1625 29 64 140 345 173 435 83
226 224 660 248 760 2 8 21 83 43 165 60 230 124 508 148 645 3 14 9 50 15 80
6 30 12 64 13 75 2 11 6 34 9 50 3 17 8 46 11 65 3 19 12 78 20 130 8 52 17
115 20 140 3 25 8 56 10 70 3 14 8 50 10 80 3 30 7 73 10 95 10 78 26 251 31
330 3 44 7 102 10 130 24 288 25 952 0 1310 -2 22 -6 85 -9 140 -4 55 -9 111
-11 125 -2 14 -6 59 -10 100 -3 41 -8 82 -10 90 -2 8 -7 42 -10 75 -3 33 -8
71 -9 85 -2 14 -6 50 -10 80 -4 30 -9 66 -11 80 -2 14 -7 43 -10 65 -3 23 -8
52 -10 65 -3 14 -7 43 -10 65 -6 45 -40 236 -55 305 -5 25 -12 56 -14 70 -9
51 -57 262 -90 400 -142 581 -384 1269 -641 1815 -54 115 -197 404 -216 435
-4 8 -45 83 -90 165 -233 428 -550 910 -854 1300 -38 50 -74 95 -80 102 -5 6
-23 29 -40 50 -56 71 -238 288 -284 338 -25 28 -86 96 -136 150 -110 122 -476
489 -605 606 -199 181 -501 435 -640 539 -19 14 -45 34 -59 46 -138 112 -562
404 -816 561 -448 278 -1018 567 -1465 745 -41 16 -88 35 -105 43 -16 7 -55
22 -85 33 -30 11 -84 32 -120 45 -76 30 -481 167 -525 178 -16 4 -61 17 -100
29 -190 58 -563 153 -770 195 -71 15 -139 29 -150 31 -11 2 -57 11 -102 19
-45 8 -92 17 -105 19 -13 3 -39 8 -58 11 -19 2 -46 7 -60 9 -14 3 -44 7 -67
10 -22 3 -52 7 -65 10 -12 3 -47 8 -77 11 -30 3 -64 8 -75 10 -12 2 -46 7 -76
10 -30 3 -66 7 -80 9 -28 5 -98 12 -205 21 -38 3 -88 8 -110 10 -43 5 -150 12
-285 21 -96 7 -936 15 -941 10z m943 -210 c20 -2 86 -7 145 -11 119 -7 150
-10 238 -19 33 -3 85 -9 115 -12 110 -10 136 -13 173 -19 20 -3 52 -7 70 -9
112 -15 135 -18 157 -22 14 -2 57 -9 95 -14 39 -6 77 -12 85 -15 8 -2 31 -6
50 -9 267 -42 709 -144 1048 -241 163 -48 505 -160 652 -215 171 -63 395 -153
405 -161 5 -5 15 -9 21 -9 7 0 52 -18 99 -40 47 -22 88 -40 90 -40 1 0 56 -26
121 -57 66 -31 121 -57 124 -58 16 -3 472 -238 495 -255 6 -4 42 -25 80 -45
39 -21 81 -47 94 -57 13 -10 27 -18 31 -18 11 0 265 -157 430 -265 369 -242
841 -604 1140 -875 569 -516 1044 -1045 1462 -1630 398 -557 766 -1212 1023
-1820 32 -74 65 -153 75 -175 10 -22 52 -132 95 -245 214 -571 366 -1131 480
-1765 7 -40 36 -231 41 -265 2 -19 8 -66 14 -105 5 -38 12 -92 15 -120 3 -27
8 -61 10 -75 3 -14 7 -56 11 -95 3 -38 7 -81 9 -95 2 -14 7 -68 11 -120 3 -52
7 -111 9 -130 25 -288 25 -1042 0 -1340 -2 -25 -7 -85 -10 -135 -3 -49 -8
-101 -10 -115 -2 -14 -7 -59 -10 -100 -3 -41 -8 -86 -10 -100 -2 -14 -7 -48
-10 -76 -3 -28 -7 -59 -9 -70 -2 -10 -7 -48 -11 -84 -4 -36 -9 -74 -11 -85 -2
-11 -11 -63 -19 -115 -8 -52 -19 -120 -25 -150 -6 -30 -13 -71 -16 -90 -2 -19
-6 -42 -9 -50 -2 -8 -7 -31 -10 -50 -3 -19 -15 -73 -25 -120 -10 -47 -21 -96
-23 -110 -7 -34 -66 -287 -72 -302 -2 -7 -7 -24 -9 -38 -3 -14 -20 -79 -39
-145 -19 -66 -44 -154 -56 -195 -103 -358 -317 -928 -471 -1255 -15 -33 -41
-89 -58 -125 -71 -155 -204 -412 -315 -610 -11 -19 -31 -55 -45 -80 -76 -136
-248 -413 -361 -580 -93 -139 -145 -214 -151 -220 -3 -3 -17 -21 -30 -40 -23
-34 -219 -296 -245 -328 -8 -10 -29 -35 -47 -58 -18 -22 -46 -57 -63 -79 -71
-91 -319 -376 -430 -495 -83 -89 -425 -431 -510 -510 -355 -331 -832 -706
-1245 -980 -122 -81 -390 -250 -396 -250 -3 0 -30 -16 -60 -35 -30 -19 -56
-35 -58 -35 -2 0 -42 -22 -88 -49 -322 -188 -821 -426 -1218 -581 -74 -29
-144 -56 -155 -61 -120 -52 -613 -211 -865 -279 -58 -16 -114 -31 -125 -34
-49 -14 -354 -85 -389 -90 -21 -4 -41 -8 -45 -10 -3 -2 -24 -7 -46 -10 -22 -4
-47 -8 -55 -11 -18 -5 -23 -6 -245 -45 -178 -30 -435 -67 -600 -84 -228 -25
-454 -41 -690 -51 -122 -5 -630 -6 -741 -1 -253 12 -388 20 -484 30 -30 3 -86
8 -125 11 -38 3 -81 8 -95 10 -14 2 -50 7 -80 10 -30 3 -71 8 -90 10 -19 3
-53 7 -75 10 -41 5 -46 6 -175 25 -81 11 -82 12 -210 34 -83 15 -220 41 -270
51 -14 3 -45 10 -70 15 -208 42 -561 132 -785 202 -71 22 -143 44 -160 48
-198 52 -848 306 -1103 429 -34 17 -65 31 -67 31 -7 0 -361 177 -455 228 -41
22 -106 57 -145 77 -94 51 -449 264 -558 337 -49 32 -92 58 -97 58 -5 0 -10 3
-12 8 -1 4 -52 41 -113 82 -482 326 -955 720 -1400 1166 -167 167 -256 261
-365 384 -36 40 -70 78 -75 84 -12 12 -173 201 -192 226 -7 8 -45 56 -86 106
-150 186 -379 500 -518 709 -72 109 -239 376 -239 382 0 3 -8 17 -19 31 -10
15 -29 45 -41 67 -12 22 -54 96 -93 165 -113 200 -330 634 -390 780 -8 19 -24
58 -37 85 -39 87 -47 107 -110 265 -117 293 -262 715 -326 950 -36 134 -127
500 -144 580 -12 58 -24 114 -26 125 -3 11 -14 67 -25 125 -11 58 -22 114 -24
125 -5 25 -33 197 -40 250 -3 22 -7 49 -10 60 -2 11 -7 46 -10 78 -4 32 -8 68
-11 80 -6 32 -19 148 -29 257 -3 36 -8 79 -10 95 -2 17 -7 71 -10 120 -4 50
-8 110 -10 135 -32 380 -22 1142 20 1555 2 22 6 67 10 100 3 33 7 76 10 95 10
73 15 116 20 160 5 43 12 95 21 151 2 14 6 41 8 60 6 40 35 225 41 254 2 11
13 69 24 130 25 132 103 481 132 585 11 41 22 83 24 93 68 294 332 1049 479
1372 13 28 52 113 86 190 305 672 751 1396 1229 1995 42 52 81 100 86 106 6 7
19 22 29 35 30 37 239 281 256 299 8 9 60 65 115 125 160 174 500 509 641 632
86 74 148 130 158 138 6 6 67 57 136 114 69 57 134 111 145 120 67 56 292 224
420 315 83 58 155 109 160 114 21 16 338 221 401 259 490 295 948 528 1394
710 397 161 830 308 1180 399 52 14 109 29 125 34 44 11 256 61 285 66 14 3
61 13 105 23 44 10 96 21 115 25 19 3 46 8 60 11 14 3 50 9 80 15 30 6 64 12
75 14 54 10 287 46 335 52 30 3 57 7 60 9 3 2 41 6 85 10 44 4 83 9 86 11 3 2
37 6 75 9 38 3 85 8 104 10 19 2 73 7 120 11 47 3 101 7 120 9 19 2 96 7 170
10 74 4 137 9 139 11 5 5 919 -4 963 -10z"/>
<path d="M9639 19586 c-2 -2 -71 -7 -154 -11 -82 -4 -163 -8 -180 -10 -16 -1
-68 -5 -115 -9 -85 -7 -111 -10 -205 -21 -27 -3 -77 -8 -110 -11 -33 -2 -103
-11 -155 -19 -52 -8 -113 -17 -135 -20 -22 -3 -49 -7 -60 -9 -11 -2 -40 -7
-65 -10 -25 -3 -56 -8 -70 -11 -14 -2 -41 -7 -60 -10 -19 -3 -114 -22 -210
-41 -96 -20 -186 -38 -200 -40 -58 -11 -426 -105 -560 -144 -345 -98 -835
-271 -1102 -388 -493 -216 -888 -420 -1273 -655 -131 -81 -301 -190 -320 -205
-6 -5 -24 -17 -40 -28 -17 -10 -100 -68 -185 -129 -135 -95 -200 -143 -415
-309 -22 -17 -42 -34 -45 -37 -3 -3 -43 -37 -90 -75 -47 -38 -98 -80 -115 -95
-16 -14 -75 -66 -130 -114 -328 -288 -693 -661 -970 -990 -37 -44 -77 -91 -89
-105 -49 -58 -332 -425 -374 -486 -7 -11 -29 -41 -48 -69 -160 -223 -435 -661
-559 -890 -359 -663 -607 -1256 -806 -1925 -22 -74 -42 -143 -44 -154 -2 -10
-12 -44 -21 -75 -9 -31 -17 -63 -19 -71 -2 -8 -11 -44 -20 -80 -9 -36 -18 -72
-20 -80 -2 -8 -19 -85 -38 -170 -45 -198 -98 -478 -122 -645 -4 -22 -8 -51
-10 -65 -3 -14 -7 -50 -11 -80 -3 -30 -8 -64 -10 -75 -2 -11 -6 -45 -9 -75 -3
-30 -7 -68 -10 -85 -2 -16 -7 -57 -10 -90 -3 -33 -8 -78 -10 -100 -3 -22 -7
-76 -10 -120 -3 -44 -8 -105 -10 -135 -22 -282 -23 -1089 -1 -1220 2 -14 7
-74 11 -135 7 -126 7 -128 31 -345 8 -72 13 -110 23 -185 6 -38 13 -92 16
-120 3 -27 9 -63 12 -80 4 -16 7 -32 8 -35 1 -3 5 -30 9 -60 4 -30 9 -62 11
-70 1 -8 5 -31 9 -50 5 -32 19 -105 30 -156 2 -12 7 -37 10 -55 3 -19 8 -43
10 -54 3 -11 12 -54 21 -95 19 -88 17 -80 45 -195 12 -49 23 -99 26 -110 13
-66 133 -479 187 -645 91 -275 237 -659 317 -835 5 -11 27 -60 49 -108 23 -49
41 -90 41 -93 0 -6 231 -468 257 -514 11 -20 38 -69 61 -110 22 -41 68 -122
102 -180 35 -58 70 -118 80 -135 60 -104 225 -358 348 -535 220 -316 532 -704
791 -985 248 -268 557 -566 806 -780 39 -33 72 -62 75 -65 32 -35 397 -318
612 -476 195 -142 659 -437 878 -556 36 -20 94 -53 130 -73 98 -56 549 -276
685 -335 66 -29 140 -61 165 -72 215 -97 722 -276 1050 -371 122 -35 496 -132
544 -141 13 -2 77 -16 142 -30 171 -36 494 -94 624 -111 25 -3 56 -8 70 -10
14 -2 50 -7 80 -10 30 -3 71 -8 90 -10 114 -15 200 -23 290 -30 41 -3 89 -8
105 -10 215 -26 1196 -27 1421 -1 16 2 70 7 119 10 87 7 148 13 210 21 17 2
61 7 100 10 38 4 78 9 89 11 11 2 56 8 100 14 126 17 142 19 296 46 270 47
635 126 846 183 283 77 614 182 854 271 47 17 96 35 110 40 58 19 377 153 525
220 361 164 851 424 1115 594 19 13 62 40 95 61 177 113 516 347 553 382 7 7
17 13 20 13 4 0 18 10 32 23 14 12 68 54 120 94 52 40 111 85 130 101 19 17
78 65 130 108 298 246 696 627 950 910 161 180 148 165 268 309 109 130 108
129 172 210 206 259 452 614 639 920 41 66 82 132 92 147 11 15 19 29 19 32 0
3 15 31 34 63 294 507 560 1097 761 1683 71 207 184 588 220 740 1 8 17 75 35
148 29 124 84 386 95 457 3 17 10 53 15 80 5 28 12 64 14 80 9 64 19 121 23
140 2 11 6 36 8 55 3 19 10 69 15 110 17 119 18 131 25 200 3 36 8 81 10 100
11 82 14 120 20 209 4 51 8 110 10 130 25 252 25 945 0 1276 -2 28 -7 88 -10
135 -8 118 -34 364 -51 480 -3 19 -7 53 -10 75 -2 22 -7 54 -9 70 -9 56 -17
110 -19 120 -2 6 -6 33 -10 60 -4 28 -17 97 -28 155 -11 58 -22 114 -23 125
-2 11 -13 65 -25 120 -12 55 -24 111 -26 125 -3 14 -14 61 -25 105 -10 44 -21
89 -24 100 -9 45 -59 229 -100 371 -114 395 -312 933 -461 1254 -20 41 -56
120 -82 175 -294 633 -713 1303 -1181 1890 -31 39 -58 72 -61 75 -3 3 -52 61
-110 130 -212 254 -571 631 -765 805 -16 15 -52 48 -80 74 -27 25 -86 78 -130
116 -44 39 -82 72 -85 75 -26 26 -275 229 -431 350 -141 110 -621 444 -717
499 -16 9 -89 53 -163 97 -171 104 -439 255 -439 247 0 -3 -8 1 -17 9 -22 20
-404 209 -538 267 -55 24 -120 52 -145 63 -25 11 -60 26 -77 34 -18 8 -48 20
-65 28 -18 8 -76 31 -128 50 -52 20 -104 41 -115 45 -190 80 -645 227 -960
311 -44 11 -84 22 -90 24 -14 4 -48 12 -130 31 -38 9 -97 23 -130 30 -33 8
-71 17 -85 19 -14 3 -92 18 -175 35 -166 33 -207 41 -247 46 -15 2 -69 11
-120 19 -51 8 -129 20 -173 26 -134 18 -139 19 -185 25 -57 7 -113 12 -215 20
-44 4 -91 8 -105 11 -14 2 -77 7 -140 10 -63 3 -126 8 -140 11 -28 5 -875 14
-881 9z"/>
</g>
</svg>
