<svg xmlns="http://www.w3.org/2000/svg" version="1.1" xmlns:xlink="http://www.w3.org/1999/xlink" xmlns:svgjs="http://svgjs.dev/svgjs" width="2000" height="1999" viewBox="0 0 2000 1999"><g transform="matrix(1,0,0,1,-0.431486880466764,-0.4312711370263287)"><svg viewBox="0 0 343 343" data-background-color="#004051" preserveAspectRatio="xMidYMid meet" height="1999" width="2000" xmlns="http://www.w3.org/2000/svg" xmlns:xlink="http://www.w3.org/1999/xlink"><g id="tight-bounds" transform="matrix(1,0,0,1,0.0740000000000407,0.07400000000001228)"><svg viewBox="0 0 342.85155851775386 342.85155851775386" height="342.85155851775386" width="342.85155851775386"><g><svg></svg></g><g><svg viewBox="0 0 342.85155851775386 342.85155851775386" height="342.85155851775386" width="342.85155851775386"><g><path d="M0 171.426c0-94.676 76.75-171.426 171.426-171.426 94.676 0 171.426 76.75 171.426 171.426 0 94.676-76.75 171.426-171.426 171.426-94.676 0-171.426-76.75-171.426-171.426zM171.426 339.438c92.79 0 168.012-75.222 168.012-168.012 0-92.79-75.222-168.012-168.012-168.012-92.79 0-168.012 75.222-168.012 168.012 0 92.79 75.222 168.012 168.012 168.012z" data-fill-palette-color="tertiary" fill="#32fd6b" stroke="transparent"></path><ellipse rx="164.56874808852186" ry="164.56874808852186" cx="171.42577925887693" cy="171.42577925887693" fill="#32fd6b" stroke="transparent" stroke-width="0" fill-opacity="1" data-fill-palette-color="tertiary"></ellipse></g><g transform="matrix(1,0,0,1,64.84655864529837,95.7154289702815)"><svg viewBox="0 0 213.1584412271571 151.42070057719087" height="151.42070057719087" width="213.1584412271571"><g><svg viewBox="0 0 213.1584412271571 151.42070057719087" height="151.42070057719087" width="213.1584412271571"><g><svg viewBox="0 0 213.1584412271571 151.42070057719087" height="151.42070057719087" width="213.1584412271571"><g transform="matrix(1,0,0,1,0,113.56624466755545)"><svg viewBox="0 0 213.1584412271571 37.85445590963543" height="37.85445590963543" width="213.1584412271571"><g id="textblocktransform"><svg viewBox="0 0 213.1584412271571 37.85445590963543" height="37.85445590963543" width="213.1584412271571" id="textblock"><g><svg viewBox="0 0 213.1584412271571 37.85445590963543" height="37.85445590963543" width="213.1584412271571"><g transform="matrix(1,0,0,1,0,0)"><svg width="213.1584412271571" viewBox="0.6 -37.5 281.52 50" height="37.85445590963543" data-palette-color="#004051"><path d="M6.95-34L6.95-34Q9.5-35.65 12.43-36.58 15.35-37.5 18.15-37.5L18.15-37.5Q18.5-37.5 18.93-37.48 19.35-37.45 20.15-37.4L20.15-37.4 16.95-22.5 24.3-22.5 27.5-37.4 34.7-37.4 26.75 0 19.55 0 23.55-18.8 16.2-18.8 12.2 0 5 0 12.25-34Q8.85-32.6 7.05-29.78 5.25-26.95 5.25-23.05L5.25-23.05Q5.25-22.1 5.38-21.4 5.5-20.7 5.8-20.05L5.8-20.05Q5.9-19.85 5.93-19.78 5.95-19.7 5.95-19.65L5.95-19.65Q3.15-19.65 1.88-20.83 0.6-22 0.6-24.5L0.6-24.5Q0.6-27 2.27-29.5 3.95-32 6.95-34ZM49.5-22.7L49.5-22.7 49.5-22.35 50.05-25 57.25-25 53.65-8Q53.55-7.55 53.5-7.18 53.45-6.8 53.45-6.4L53.45-6.4Q53.45-5.3 53.95-4.78 54.45-4.25 55.5-4.25L55.5-4.25Q56.8-4.25 57.85-5.48 58.9-6.7 59.55-8.95L59.55-8.95 61.65-8.95Q60.05-4.35 57.5-2.02 54.95 0.3 51.6 0.3L51.6 0.3Q49.45 0.3 48.17-0.9 46.9-2.1 46.7-4.3L46.7-4.3Q45.15-2 43.27-0.85 41.4 0.3 39.25 0.3L39.25 0.3Q36.15 0.3 34.37-1.8 32.6-3.9 32.6-7.75L32.6-7.75Q32.6-10.55 33.45-13.6 34.3-16.65 35.8-19.15L35.8-19.15Q37.65-22.1 40.1-23.68 42.55-25.25 45.45-25.25L45.45-25.25Q47.4-25.25 48.45-24.58 49.5-23.9 49.5-22.7ZM46.65-8.95L49.05-20.25Q49.05-21 48.5-21.58 47.95-22.15 47-22.15L47-22.15Q44.25-22.15 42.12-17.55 40-12.95 40-8.45L40-8.45Q40-6.5 40.55-5.53 41.1-4.55 42.5-4.55L42.5-4.55Q43.8-4.55 45.02-5.8 46.25-7.05 46.65-8.95L46.65-8.95ZM59.15-5.7L59.15-5.7Q59.15-6.35 59.25-7.18 59.34-8 59.55-8.95L59.55-8.95 64.89-34 72.3-35 66.55-8Q66.45-7.55 66.39-7.18 66.34-6.8 66.34-6.4L66.34-6.4Q66.34-5.4 66.82-4.98 67.3-4.55 68.39-4.55L68.39-4.55Q69.8-4.55 71.05-5.78 72.3-7 72.9-8.95L72.9-8.95 75-8.95Q73.4-4.4 70.7-2.05 68 0.3 64.5 0.3L64.5 0.3Q62 0.3 60.57-1.28 59.15-2.85 59.15-5.7ZM78.24-34L85.64-35 81.89-17.4 91.54-25 96.49-25 86.49-18.05Q87.19-18.15 87.52-18.2 87.84-18.25 88.14-18.25L88.14-18.25Q90.69-18.25 92.17-16.65 93.64-15.05 93.64-12.4L93.64-12.4Q93.64-11.9 93.59-11.43 93.54-10.95 93.44-10.5L93.44-10.5 92.89-8Q92.79-7.4 92.72-7 92.64-6.6 92.64-6.4L92.64-6.4Q92.64-5.45 93.12-5 93.59-4.55 94.59-4.55L94.59-4.55Q95.84-4.55 96.74-5.4 97.64-6.25 98.79-8.95L98.79-8.95 100.89-8.95Q99.34-4.35 97.04-2.02 94.74 0.3 91.69 0.3L91.69 0.3Q88.64 0.3 87.02-1.18 85.39-2.65 85.39-5.4L85.39-5.4Q85.39-6 85.47-6.65 85.54-7.3 85.69-8L85.69-8 86.09-9.95Q86.19-10.4 86.24-10.85 86.29-11.3 86.29-11.8L86.29-11.8Q86.29-13 85.84-13.6 85.39-14.2 84.49-14.2L84.49-14.2Q83.74-14.2 82.87-13.78 81.99-13.35 80.79-12.35L80.79-12.35 78.19 0 70.99 0 78.24-34ZM115.04-22.7L115.04-22.7 115.04-22.35 115.59-25 122.79-25 119.19-8Q119.09-7.55 119.04-7.18 118.99-6.8 118.99-6.4L118.99-6.4Q118.99-5.3 119.49-4.78 119.99-4.25 121.04-4.25L121.04-4.25Q122.34-4.25 123.39-5.48 124.44-6.7 125.09-8.95L125.09-8.95 127.19-8.95Q125.59-4.35 123.04-2.02 120.49 0.3 117.14 0.3L117.14 0.3Q114.99 0.3 113.72-0.9 112.44-2.1 112.24-4.3L112.24-4.3Q110.69-2 108.82-0.85 106.94 0.3 104.79 0.3L104.79 0.3Q101.69 0.3 99.92-1.8 98.14-3.9 98.14-7.75L98.14-7.75Q98.14-10.55 98.99-13.6 99.84-16.65 101.34-19.15L101.34-19.15Q103.19-22.1 105.64-23.68 108.09-25.25 110.99-25.25L110.99-25.25Q112.94-25.25 113.99-24.58 115.04-23.9 115.04-22.7ZM112.19-8.95L114.59-20.25Q114.59-21 114.04-21.58 113.49-22.15 112.54-22.15L112.54-22.15Q109.79-22.15 107.67-17.55 105.54-12.95 105.54-8.45L105.54-8.45Q105.54-6.5 106.09-5.53 106.64-4.55 108.04-4.55L108.04-4.55Q109.34-4.55 110.57-5.8 111.79-7.05 112.19-8.95L112.19-8.95ZM144.44 0L126.89 0 127.79-3.95 145.29-3.95 144.44 0ZM165.64-20.85L165.64-20.85Q165.64-19.15 164.91-18.18 164.19-17.2 162.99-17.2L162.99-17.2Q162.59-17.2 162.14-17.35 161.69-17.5 161.24-17.8L161.24-17.8Q161.54-18.6 161.69-19.35 161.84-20.1 161.84-20.75L161.84-20.75Q161.84-21.75 161.49-22.28 161.14-22.8 160.44-22.8L160.44-22.8Q158.24-22.8 156.14-17.73 154.04-12.65 154.04-8.1L154.04-8.1Q154.04-5.8 154.81-4.85 155.59-3.9 157.64-3.9L157.64-3.9Q159.99-3.9 161.96-4.98 163.94-6.05 166.49-8.95L166.49-8.95 168.19-8.95Q165.29-4.25 161.89-1.98 158.49 0.3 154.44 0.3L154.44 0.3Q150.59 0.3 148.61-1.7 146.64-3.7 146.64-7.65L146.64-7.65Q146.64-10.5 147.51-13.7 148.39-16.9 149.94-19.4L149.94-19.4Q151.79-22.4 154.36-23.93 156.94-25.45 160.09-25.45L160.09-25.45Q162.84-25.45 164.24-24.28 165.64-23.1 165.64-20.85ZM165.78-7.7L165.78-7.7Q165.78-10.55 166.71-13.75 167.63-16.95 169.23-19.45L169.23-19.45Q171.08-22.4 173.68-23.93 176.28-25.45 179.48-25.45L179.48-25.45Q182.68-25.45 184.28-23.45 185.88-21.45 185.88-17.45L185.88-17.45Q185.98-17.4 186.11-17.38 186.23-17.35 186.43-17.35L186.43-17.35Q187.98-17.35 190.13-18.2 192.28-19.05 194.13-20.35L194.13-20.35 194.58-19Q193.18-17.5 190.86-16.4 188.53-15.3 185.73-14.85L185.73-14.85Q185.13-8.1 181.83-3.95 178.53 0.2 173.78 0.2L173.78 0.2Q169.88 0.2 167.83-1.8 165.78-3.8 165.78-7.7ZM179.88-22.4L179.88-22.4Q177.48-22.4 175.36-17.55 173.23-12.7 173.23-8.35L173.23-8.35Q173.23-6 173.76-5.15 174.28-4.3 175.78-4.3L175.78-4.3Q177.63-4.3 179.31-7.3 180.98-10.3 181.58-14.7L181.58-14.7Q180.88-14.85 180.56-15.38 180.23-15.9 180.23-16.8L180.23-16.8Q180.23-17.75 180.63-18.45 181.03-19.15 181.78-19.5L181.78-19.5Q181.68-21.1 181.26-21.75 180.83-22.4 179.88-22.4ZM196.58-8.45L196.58-8.45Q196.58-6.5 197.13-5.53 197.68-4.55 199.08-4.55L199.08-4.55Q200.33-4.55 201.53-5.73 202.73-6.9 203.18-8.7L203.18-8.7 203.18-8.95 205.63-20.4Q205.48-21.2 204.96-21.68 204.43-22.15 203.58-22.15L203.58-22.15Q200.83-22.15 198.71-17.55 196.58-12.95 196.58-8.45ZM206.08-22.7L206.08-22.7 206.08-22.5 208.53-34 215.93-35 210.18-8Q210.08-7.55 210.03-7.18 209.98-6.8 209.98-6.4L209.98-6.4Q209.98-5.4 210.46-4.98 210.93-4.55 212.03-4.55L212.03-4.55Q213.33-4.55 214.38-5.7 215.43-6.85 216.08-8.95L216.08-8.95 218.18-8.95Q216.63-4.5 214.16-2.25 211.68 0 208.13 0L208.13 0Q206.08 0 204.81-1.13 203.53-2.25 203.23-4.3L203.23-4.3Q201.73-2 199.88-0.85 198.03 0.3 195.83 0.3L195.83 0.3Q192.73 0.3 190.96-1.8 189.18-3.9 189.18-7.75L189.18-7.75Q189.18-10.55 190.03-13.6 190.88-16.65 192.38-19.15L192.38-19.15Q194.23-22.1 196.68-23.68 199.13-25.25 202.03-25.25L202.03-25.25Q203.98-25.25 205.03-24.58 206.08-23.9 206.08-22.7ZM228.53-31.65L228.53-31.65Q228.53-30 227.35-28.85 226.18-27.7 224.53-27.7L224.53-27.7Q222.88-27.7 221.73-28.85 220.58-30 220.58-31.65L220.58-31.65Q220.58-33.3 221.73-34.48 222.88-35.65 224.53-35.65L224.53-35.65Q226.18-35.65 227.35-34.48 228.53-33.3 228.53-31.65ZM215.78-5.7L215.78-5.7Q215.78-6.35 215.88-7.18 215.98-8 216.18-8.95L216.18-8.95 219.58-25 226.78-25 223.18-8Q223.08-7.55 223.03-7.18 222.98-6.8 222.98-6.4L222.98-6.4Q222.98-5.4 223.45-4.98 223.93-4.55 225.03-4.55L225.03-4.55Q226.43-4.55 227.68-5.78 228.93-7 229.53-8.95L229.53-8.95 231.63-8.95Q230.03-4.4 227.33-2.05 224.63 0.3 221.13 0.3L221.13 0.3Q218.63 0.3 217.2-1.28 215.78-2.85 215.78-5.7ZM241.28-5.35L241.28-5.35Q241.28-6.25 241.5-7.6 241.72-8.95 242.43-11.9L242.43-11.9Q243.13-14.75 243.32-16 243.53-17.25 243.53-18.1L243.53-18.1Q243.53-19.35 243.07-20 242.63-20.65 241.72-20.65L241.72-20.65Q240.53-20.65 239.5-19.43 238.47-18.2 237.82-16.05L237.82-16.05 234.43 0 227.22 0 232.53-25 239.72-25 239.18-22.4Q240.43-23.8 241.88-24.5 243.32-25.2 245.03-25.2L245.03-25.2Q247.68-25.2 249.13-23.75 250.57-22.3 250.57-19.55L250.57-19.55Q250.57-18.4 250.3-16.82 250.03-15.25 249.22-12L249.22-12Q248.57-9.45 248.38-8.4 248.18-7.35 248.18-6.65L248.18-6.65Q248.18-5.6 248.68-5.08 249.18-4.55 250.18-4.55L250.18-4.55Q251.43-4.55 252.32-5.4 253.22-6.25 254.38-8.95L254.38-8.95 256.48-8.95Q254.88-4.3 252.6-2 250.32 0.3 247.18 0.3L247.18 0.3Q244.38 0.3 242.82-1.23 241.28-2.75 241.28-5.35ZM270.92-22.7L270.92-22.7 270.92-22.4 271.47-25 278.67-25 273.72-1.8Q276.22-2.7 277.65-4.33 279.07-5.95 280.02-8.95L280.02-8.95 282.12-8.95Q280.97-5.15 278.85-2.85 276.72-0.55 273.27 0.4L273.27 0.4 272.52 4Q271.62 8.2 269.37 10.35 267.12 12.5 263.52 12.5L263.52 12.5Q260.97 12.5 259.45 11.2 257.92 9.9 257.92 7.65L257.92 7.65Q257.92 5.2 259.95 3.33 261.97 1.45 266.07 0.2L266.07 0.2 266.67-2.45Q265.37-1.1 263.87-0.4 262.37 0.3 260.67 0.3L260.67 0.3Q257.57 0.3 255.8-1.8 254.02-3.9 254.02-7.75L254.02-7.75Q254.02-10.55 254.87-13.6 255.72-16.65 257.22-19.15L257.22-19.15Q259.07-22.1 261.52-23.68 263.97-25.25 266.87-25.25L266.87-25.25Q268.82-25.25 269.87-24.58 270.92-23.9 270.92-22.7ZM267.92-8.45L270.47-20.3Q270.42-21.1 269.87-21.63 269.32-22.15 268.42-22.15L268.42-22.15Q265.67-22.15 263.55-17.55 261.42-12.95 261.42-8.45L261.42-8.45Q261.42-6.5 261.97-5.53 262.52-4.55 263.92-4.55L263.92-4.55Q265.12-4.55 266.3-5.65 267.47-6.75 267.92-8.45L267.92-8.45ZM265.27 4.15L265.57 2.7Q263.07 3.65 261.87 4.67 260.67 5.7 260.67 6.95L260.67 6.95Q260.67 7.6 261.17 8.1 261.67 8.6 262.37 8.6L262.37 8.6Q263.22 8.6 264.02 7.4 264.82 6.2 265.27 4.15L265.27 4.15Z" opacity="1" transform="matrix(1,0,0,1,0,0)" fill="#004051" class="wordmark-text-0" data-fill-palette-color="quaternary" id="text-0"></path></svg></g></svg></g></svg></g></svg></g><g transform="matrix(1,0,0,1,6.8991202452388904,0)"><svg viewBox="0 0 199.36020073667933 104.62971613423235" height="104.62971613423235" width="199.36020073667933"><g><svg xmlns="http://www.w3.org/2000/svg" xmlns:xlink="http://www.w3.org/1999/xlink" version="1.1" x="0" y="0" viewBox="5 26.381999999999998 90.001 47.23499999999999" enable-background="new 0 0 100 100" xml:space="preserve" height="104.62971613423235" width="199.36020073667933" class="icon-icon-0" data-fill-palette-color="quaternary" id="icon-0"><path fill="none" d="M50.482 28.475c-0.03 0.03-0.071 0.048-0.106 0.072C50.411 28.522 50.452 28.505 50.482 28.475z"></path><path fill="none" d="M50.628 28.259c-0.021 0.052-0.06 0.093-0.093 0.138C50.568 28.352 50.606 28.311 50.628 28.259z"></path><path fill="none" d="M50.553 27.618c0.025 0.037 0.058 0.069 0.075 0.111C50.61 27.688 50.578 27.655 50.553 27.618z"></path><path fill="none" d="M50.266 28.621c-0.082 0.034-0.171 0.053-0.265 0.053C50.095 28.674 50.184 28.655 50.266 28.621z"></path><path fill="none" d="M50.001 28.674c-0.375 0-0.68-0.304-0.68-0.68s0.305-0.68 0.68-0.68c-0.376 0-0.681 0.304-0.681 0.68S49.625 28.674 50.001 28.674z"></path><path fill="none" d="M50.001 27.314c0.094 0 0.183 0.019 0.265 0.053C50.184 27.333 50.095 27.314 50.001 27.314z"></path><path fill="none" d="M50.376 27.442c0.036 0.024 0.076 0.041 0.106 0.071C50.452 27.483 50.412 27.466 50.376 27.442z"></path><path fill="none" d="M54.305 70.684c0.375 0 0.678 0.305 0.68 0.68C54.984 70.988 54.68 70.684 54.305 70.684z"></path><path d="M86.63 69.109c0.108-0.227 0.177-0.478 0.177-0.746V28.107c0-0.953-0.772-1.725-1.727-1.725H14.92c-0.953 0-1.724 0.772-1.724 1.725v40.256c0 0.269 0.066 0.52 0.176 0.746H5v2.783c0 0.953 0.773 1.725 1.726 1.725h86.549c0.953 0 1.726-0.771 1.726-1.725v-2.783H86.63zM50.001 27.314c0.094 0 0.183 0.019 0.265 0.053 0.042 0.018 0.074 0.049 0.11 0.075 0.036 0.024 0.076 0.041 0.106 0.071 0.03 0.03 0.047 0.07 0.071 0.105 0.025 0.037 0.058 0.069 0.075 0.111 0.034 0.081 0.054 0.171 0.054 0.265s-0.02 0.183-0.054 0.265c-0.021 0.052-0.06 0.093-0.093 0.138-0.02 0.025-0.031 0.056-0.053 0.078-0.03 0.03-0.071 0.048-0.106 0.072-0.037 0.025-0.069 0.057-0.11 0.074-0.082 0.034-0.171 0.053-0.265 0.053-0.376 0-0.681-0.304-0.681-0.68S49.625 27.314 50.001 27.314zM16.143 29.708h67.714v36.571H16.143V29.708zM54.305 72.046h-8.608c-0.375 0-0.68-0.305-0.68-0.683 0-0.375 0.305-0.68 0.68-0.68h8.608c0.375 0 0.68 0.305 0.68 0.68C54.984 71.741 54.68 72.046 54.305 72.046z" fill="#004051" data-fill-palette-color="quaternary"></path><polygon points="25.039,48.313 25.039,49.536 25.039,49.537 44.878,49.537 44.878,49.536 44.878,48.313 44.878,48.312   25.039,48.312 " fill="#004051" data-fill-palette-color="quaternary"></polygon><rect x="36.633" y="58.613" width="3.488" height="1.225" fill="#004051" data-fill-palette-color="quaternary"></rect><rect x="46.552" y="48.313" width="3.488" height="1.224" fill="#004051" data-fill-palette-color="quaternary"></rect><rect x="39.377" y="46.296" width="3.488" height="1.224" fill="#004051" data-fill-palette-color="quaternary"></rect><rect x="20.692" y="31.829" width="3.489" height="1.224" fill="#004051" data-fill-palette-color="quaternary"></rect><rect x="20.692" y="42.131" width="3.489" height="1.224" fill="#004051" data-fill-palette-color="quaternary"></rect><rect x="20.692" y="46.296" width="3.489" height="1.224" fill="#004051" data-fill-palette-color="quaternary"></rect><rect x="20.692" y="48.313" width="3.489" height="1.224" fill="#004051" data-fill-palette-color="quaternary"></rect><rect x="20.692" y="44.191" width="5.832" height="1.224" fill="#004051" data-fill-palette-color="quaternary"></rect><rect x="25.039" y="46.296" width="12.665" height="1.224" fill="#004051" data-fill-palette-color="quaternary"></rect><rect x="20.692" y="50.373" width="3.489" height="1.223" fill="#004051" data-fill-palette-color="quaternary"></rect><rect x="20.692" y="54.494" width="3.489" height="1.223" fill="#004051" data-fill-palette-color="quaternary"></rect><rect x="53.637" y="50.373" width="3.488" height="1.223" fill="#004051" data-fill-palette-color="quaternary"></rect><rect x="25.039" y="50.373" width="27.761" height="1.223" fill="#004051" data-fill-palette-color="quaternary"></rect><rect x="20.692" y="52.434" width="27.792" height="1.223" fill="#004051" data-fill-palette-color="quaternary"></rect><rect x="25.039" y="54.494" width="23.444" height="1.223" fill="#004051" data-fill-palette-color="quaternary"></rect><rect x="20.692" y="56.555" width="17.012" height="1.223" fill="#004051" data-fill-palette-color="quaternary"></rect><rect x="20.692" y="58.613" width="14.267" height="1.225" fill="#004051" data-fill-palette-color="quaternary"></rect><rect x="20.692" y="60.674" width="7.134" height="1.225" fill="#004051" data-fill-palette-color="quaternary"></rect><rect x="20.692" y="62.736" width="5.832" height="1.223" fill="#004051" data-fill-palette-color="quaternary"></rect><rect x="20.692" y="33.89" width="8.694" height="1.224" fill="#004051" data-fill-palette-color="quaternary"></rect><rect x="20.692" y="35.95" width="11.594" height="1.224" fill="#004051" data-fill-palette-color="quaternary"></rect><rect x="20.692" y="38.01" width="8.694" height="1.224" fill="#004051" data-fill-palette-color="quaternary"></rect><rect x="20.692" y="40.071" width="8.694" height="1.224" fill="#004051" data-fill-palette-color="quaternary"></rect><rect x="18.798" y="31.829" width="1.058" height="1.224" fill="#004051" data-fill-palette-color="quaternary"></rect><rect x="18.798" y="33.89" width="1.058" height="1.224" fill="#004051" data-fill-palette-color="quaternary"></rect><rect x="18.798" y="35.95" width="1.058" height="1.224" fill="#004051" data-fill-palette-color="quaternary"></rect><rect x="18.798" y="38.01" width="1.058" height="1.224" fill="#004051" data-fill-palette-color="quaternary"></rect><rect x="18.798" y="40.071" width="1.058" height="1.224" fill="#004051" data-fill-palette-color="quaternary"></rect><rect x="18.798" y="42.131" width="1.058" height="1.224" fill="#004051" data-fill-palette-color="quaternary"></rect><rect x="18.798" y="44.191" width="1.058" height="1.224" fill="#004051" data-fill-palette-color="quaternary"></rect><rect x="18.798" y="46.252" width="1.058" height="1.224" fill="#004051" data-fill-palette-color="quaternary"></rect><rect x="18.798" y="48.313" width="1.058" height="1.224" fill="#004051" data-fill-palette-color="quaternary"></rect><rect x="18.798" y="50.373" width="1.058" height="1.223" fill="#004051" data-fill-palette-color="quaternary"></rect><rect x="18.798" y="52.434" width="1.058" height="1.223" fill="#004051" data-fill-palette-color="quaternary"></rect><rect x="18.798" y="54.494" width="1.058" height="1.223" fill="#004051" data-fill-palette-color="quaternary"></rect><rect x="18.798" y="56.555" width="1.058" height="1.223" fill="#004051" data-fill-palette-color="quaternary"></rect><rect x="18.798" y="58.613" width="1.058" height="1.225" fill="#004051" data-fill-palette-color="quaternary"></rect><rect x="18.798" y="60.674" width="1.058" height="1.225" fill="#004051" data-fill-palette-color="quaternary"></rect><rect x="18.798" y="62.736" width="1.058" height="1.223" fill="#004051" data-fill-palette-color="quaternary"></rect></svg></g></svg></g><g></g></svg></g></svg></g></svg></g></svg></g><defs></defs></svg><rect width="342.85155851775386" height="342.85155851775386" fill="none" stroke="none" visibility="hidden"></rect></g></svg></g></svg>